<svg width="17" height="18" viewBox="0 0 17 18" fill="none" xmlns="http://www.w3.org/2000/svg">
<path id="Simbolo" d="M15.68 3.64L13.82 1.78C13.06 1.02 12.04 0.599998 10.97 0.599998H7.98C5.8 0.599998 4.02 2.33 3.95 4.49C1.76 4.53 0 6.33 0 8.52V13.37C0 15.59 1.81 17.4 4.03 17.4H8.88C11.05 17.4 12.83 15.67 12.91 13.51C15.09 13.46 16.86 11.67 16.86 9.48V6.49C16.86 5.41 16.44 4.4 15.68 3.64ZM12.89 3.7C12.89 3.7 12.97 3.77 13 3.81L13.99 4.8C14.22 5.03 14.39 5.34 14.52 5.65H12.58C12.14 5.65 11.77 5.29 11.77 4.84V2.87C12.06 2.99 12.36 3.16 12.62 3.43L12.89 3.7ZM8.88 15.39H4.03C2.92 15.39 2.01 14.48 2.01 13.37V8.52C2.01 7.44 2.87 6.55 3.95 6.5V9.48C3.95 11.7 5.76 13.51 7.98 13.51H10.89C10.82 14.56 9.94 15.39 8.88 15.39ZM12.83 11.5H7.98C6.87 11.5 5.96 10.59 5.96 9.48V4.63C5.96 3.52 6.87 2.61 7.98 2.61H9.76V4.84C9.76 6.39 11.03 7.66 12.58 7.66H14.85V9.48C14.85 10.59 13.94 11.5 12.83 11.5Z" fill="black"/>
</svg>
